<?xml version="1.0" encoding="UTF-8"?>
<svg id="Calque_2" data-name="Calque 2" xmlns="http://www.w3.org/2000/svg" viewBox="0 0 89.72 194.74">
  <g id="Calque_1-2" data-name="Calque 1">
    <g>
      <path d="M50,194.05c-9.91.41-27.82.02-37.14.15-3.3-.1-6.25.49-8.92-1.39-2-1.23-3.39-4.1-3.34-6.23.29-11.17-.64-101.91.45-112.14,2.57-17.49,21.8-28.52,38.1-21.73,9.37,3.76,16.01,12.66,16.94,22.86.46,9.05.06,57.3.18,90.24,0,10.88,0,18.91,0,20.88.09,3.11-2.72,6.75-6.15,7.35l-.12.02Z" fill="#8b0036" stroke="#8b0036" stroke-linecap="round" stroke-miterlimit="10"/>
      <path d="M33.93,10.27c-1.83-.39-5.46-.16-7.83-.22-3.22-.21-5.81.78-6.43,3.66-.14,5.76,0,41.7-.05,48.08,0,.82.02,1.33.53,2.21,1.73,3.07,5.8,2.25,8.93,2.36,3.02-.02,5.05.18,6.47-1.04,1.03-.81,1.78-2.08,1.7-3.37,0-2.62,0-12.71,0-23.01,0-7.27,0-13.48,0-19.39-.1-2.14.23-4.39-.18-6.4-.48-1.3-1.63-2.46-2.99-2.85l-.15-.04Z" fill="#8b0036" stroke="#8b0036" stroke-linecap="round" stroke-miterlimit="10"/>
      <path d="M32.79,19.72c-6.84.14-15.7,1.55-16.11-7.88C15.77-.45,23.39.24,33.06.7c5.49.61,7.24,5.66,6.77,10.52.29,4.24-2.75,8.19-6.87,8.48l-.16.02Z" fill="#8b0036" stroke="#8b0036" stroke-linecap="round" stroke-miterlimit="10"/>
      <g>
        <path d="M43.88,131.84c.41,11.73,11.21,21.87,22.98,21.44,11.58.04,22.02-9.91,22.36-21.5-.14-7.6-1.72-15.8-2.46-23.46-.57-2.68.16-7.12-3.25-7.49-5.85-.11-15.83-.03-22.61-.03-3.54.01-6.77,0-9.39.01-1.57-.01-3.3.49-3.74,2.18-1.17,7.67-3.47,20.42-3.89,28.69v.17Z" fill="#999" stroke="#999" stroke-linecap="round" stroke-miterlimit="10"/>
        <path d="M67.7,191.5c-1.6.58-3.61-.17-3.59-1.93-.08-6.08-.02-25.16-.03-32.77,0-.7-.02-1.45.25-2.08.56-1.63,3.93-1.83,4.45-.15.56,2.29.14,5.14.26,7.67,0,6.76,0,14.37,0,21.04,0,1.59,0,3.42,0,4.94-.02,1.25,0,2.66-1.21,3.23l-.13.06Z" fill="#999" stroke="#999" stroke-linecap="round" stroke-miterlimit="10"/>
        <path d="M78.28,190.11c-1.14-1.3-3.38-.82-4.98-.93-5.34.06-11.05-.13-16.44.08-1.63.09-2.7,1.33-2.29,2.99.39,1.79,2.23,1.95,3.75,1.9,4.66,0,12.9.01,17.18,0,2.32.23,3.83-1.81,2.85-3.92l-.08-.12Z" fill="#999" stroke="#999" stroke-linecap="round" stroke-miterlimit="10"/>
      </g>
    </g>
  </g>
</svg>